<?xml version="1.0" encoding="UTF-8" standalone="no"?>
<!-- Generator: Adobe Illustrator 19.0.0, SVG Export Plug-In . SVG Version: 6.00 Build 0)  -->

<svg
   version="1.1"
   id="Layer_1"
   x="0px"
   y="0px"
   viewBox="-100 -100 2048.2866 2160.4027"
   xml:space="preserve"
   inkscape:version="1.3.2 (091e20e, 2023-11-25, custom)"
   sodipodi:docname="snip.svg"
   width="2048.2881"
   height="2160.4041"
   inkscape:export-filename="snip.png"
   inkscape:export-xdpi="90"
   inkscape:export-ydpi="90"
   xmlns:inkscape="http://www.inkscape.org/namespaces/inkscape"
   xmlns:sodipodi="http://sodipodi.sourceforge.net/DTD/sodipodi-0.dtd"
   xmlns="http://www.w3.org/2000/svg"
   xmlns:svg="http://www.w3.org/2000/svg"
   xmlns:rdf="http://www.w3.org/1999/02/22-rdf-syntax-ns#"
   xmlns:cc="http://creativecommons.org/ns#"
   xmlns:dc="http://purl.org/dc/elements/1.1/"><metadata
   id="metadata43"><rdf:RDF><cc:Work
       rdf:about=""><dc:format>image/svg+xml</dc:format><dc:type
         rdf:resource="http://purl.org/dc/dcmitype/StillImage" /></cc:Work></rdf:RDF></metadata><defs
   id="defs41" /><sodipodi:namedview
   pagecolor="#ffffff"
   bordercolor="#666666"
   borderopacity="1"
   objecttolerance="10"
   gridtolerance="10"
   guidetolerance="10"
   inkscape:pageopacity="0"
   inkscape:pageshadow="2"
   inkscape:window-width="3840"
   inkscape:window-height="2126"
   id="namedview39"
   showgrid="false"
   inkscape:zoom="0.23046876"
   inkscape:cx="-2746.5762"
   inkscape:cy="2609.8982"
   inkscape:window-x="-11"
   inkscape:window-y="-11"
   inkscape:window-maximized="1"
   inkscape:current-layer="Layer_1"
   fit-margin-top="50"
   fit-margin-left="600"
   fit-margin-right="600"
   fit-margin-bottom="50"
   inkscape:showpageshadow="0"
   inkscape:pagecheckerboard="0"
   inkscape:deskcolor="#d1d1d1" /><g
   id="g9"
   transform="translate(-593.1599,1939.0204)" /><g
   id="g11"
   transform="translate(-593.1599,1939.0204)" /><g
   id="g13"
   transform="translate(-593.1599,1939.0204)" /><g
   id="g15"
   transform="translate(-593.1599,1939.0204)" /><g
   id="g17"
   transform="translate(-593.1599,1939.0204)" /><g
   id="g19"
   transform="translate(-593.1599,1939.0204)" /><g
   id="g21"
   transform="translate(-593.1599,1939.0204)" /><g
   id="g23"
   transform="translate(-593.1599,1939.0204)" /><g
   id="g25"
   transform="translate(-593.1599,1939.0204)" /><g
   id="g27"
   transform="translate(-593.1599,1939.0204)" /><g
   id="g29"
   transform="translate(-593.1599,1939.0204)" /><g
   id="g31"
   transform="translate(-593.1599,1939.0204)" /><g
   id="g33"
   transform="translate(-593.1599,1939.0204)" /><g
   id="g35"
   transform="translate(-593.1599,1939.0204)" /><g
   id="g37"
   transform="translate(-593.1599,1939.0204)" /><text
   xml:space="preserve"
   style="font-style:normal;font-weight:normal;font-size:16.4979px;line-height:0%;font-family:sans-serif;letter-spacing:0px;word-spacing:0px;fill:#0c79d3;fill-opacity:1;stroke:none;stroke-width:52.9396;stroke-linecap:butt;stroke-linejoin:miter;stroke-dasharray:none;stroke-opacity:1"
   x="-43.82272"
   y="1951.8112"
   id="text4189"><tspan
     sodipodi:role="line"
     id="tspan4191"
     x="-43.82272"
     y="1951.8112"
     style="font-style:normal;font-variant:normal;font-weight:normal;font-stretch:normal;font-size:859.269px;line-height:1.25;font-family:Lavinia;-inkscape-font-specification:Lavinia;fill:#0cd3a9;fill-opacity:1;stroke:none;stroke-width:52.9396;stroke-dasharray:none;stroke-opacity:1">SNIP</tspan></text>
<g
   id="g1"
   transform="matrix(0.91995657,0,0,0.91995657,-17.571905,2.1917965e-5)"><path
     id="pu8v9iDeQ"
     d="m 292.39153,1300.1508 c -77.24207,-13.055 -139.25331,-54.7585 -170.44025,-114.5939 -18.49457,-34.8133 -25.022074,-62.0112 -25.022074,-102.9894 0.362639,-73.253 32.637494,-142.1544 93.923454,-200.17662 57.29693,-54.03318 109.15429,-76.87942 213.59427,-95.374 141.0665,-24.65944 252.75925,-63.4618 330.36396,-114.59387 16.31875,-10.87917 29.73638,-20.30778 29.73638,-21.39569 0,-4.71431 -60.56068,-41.70347 -95.37401,-58.02221 C 597.00814,558.91706 510.33746,533.53234 404.44693,515.03776 322.49055,500.53221 280.06181,485.66402 234.73196,454.83972 170.90753,412.04834 123.40184,348.2239 104.54462,280.41044 95.478651,247.77295 94.390735,194.46504 102.73143,163.64074 122.31392,88.574508 181.06141,31.640213 262.29251,8.4313288 c 39.52763,-11.2418035 106.25317,-11.2418035 148.68191,0 36.62653,9.7912482 94.2861,38.4397152 125.47304,61.6485992 73.25304,55.483742 119.30817,142.154422 119.30817,223.748152 -0.36264,34.45069 -3.98903,53.67055 -16.68139,84.49485 -5.43958,12.32972 -9.06597,23.20888 -8.34069,23.93416 0.72528,0.36264 62.37388,35.5386 136.3522,77.96734 l 135.26428,76.87943 245.50647,-124.02247 c 135.2643,-68.1761 294.1001,-149.04456 353.2102,-179.50622 72.5278,-37.71444 113.506,-56.93429 126.561,-59.47277 34.8133,-6.52749 81.5937,6.16486 125.1104,34.08805 l 24.6594,15.59347 -21.3957,12.69236 c -11.9671,6.89014 -171.1655,97.91248 -353.9355,202.35246 -183.1326,104.43998 -332.9024,191.11066 -332.9024,192.19858 0,1.45055 231.7262,134.539 690.1017,396.36418 l 17.7693,10.5166 -21.0331,14.1429 c -42.7914,28.2858 -93.5608,42.4287 -128.3741,35.9012 -13.055,-2.5384 -51.8574,-20.6704 -119.3082,-55.8463 -55.1211,-28.6485 -213.9569,-109.51697 -352.8476,-179.50626 L 902.71266,744.95077 767.44838,821.8302 c -74.34095,42.06611 -135.98955,77.24207 -136.71483,77.96735 -0.72528,0.72528 2.90111,11.60444 8.34069,23.93416 12.69236,30.8243 16.31875,50.04416 16.68139,84.49489 0,135.9895 -118.94554,263.6384 -270.8912,290.111 -33.00013,5.8022 -64.91235,6.5275 -92.4729,1.8132 z m 102.98943,-137.0775 c 51.49471,-17.4066 94.64873,-54.0332 117.13233,-99.363 11.60445,-24.2968 13.78028,-31.5496 13.78028,-52.5826 0,-29.01114 -6.16486,-45.32989 -23.20889,-62.37391 -22.12096,-22.12097 -39.16499,-27.56055 -86.67067,-27.19791 -36.62652,0 -44.60458,1.08791 -67.08819,9.79125 -49.31887,19.58249 -89.57178,55.48374 -111.33011,99.36307 -10.15389,20.6704 -11.96708,27.9232 -11.96708,51.4947 0,30.4616 4.7143,42.7914 24.2968,62.0112 11.60444,11.9671 27.19791,19.9451 48.23096,25.7474 18.13194,5.0769 74.34096,1.0879 96.82457,-6.8902 z m 79.4179,-790.5526 c 19.58249,-8.70333 38.43971,-26.83527 46.05513,-44.24193 2.90111,-6.89014 5.43958,-22.84625 5.43958,-34.81333 0.36264,-62.73651 -54.75846,-128.0115 -130.91261,-154.84677 -25.74736,-9.06598 -89.57179,-10.87917 -109.51693,-2.90112 -22.48361,9.06598 -40.25291,22.84625 -50.04416,39.89027 -8.34069,14.14292 -9.79124,20.67042 -9.79124,44.24194 0,23.57152 1.81319,30.8243 12.32972,52.58263 23.20888,46.78041 76.51679,89.20915 131.27525,104.80262 27.19791,7.61541 82.68165,5.07694 105.16526,-4.71431 z"
     style="fill:#21a7f3;fill-opacity:1;stroke-width:0.362639" /><path
     id="pRA5LNWo6"
     d="m 1239.6041,652.84051 v -34.45069 h 85.2202 85.2201 v 34.45069 34.45069 h -85.2201 -85.2202 z"
     style="fill:#607d8b;fill-opacity:1;stroke-width:0.362639" /><path
     id="p8ZgqrquA"
     d="m 1500.7041,652.84051 v -34.45069 h 85.2201 85.2201 v 34.45069 34.45069 h -85.2201 -85.2201 z"
     style="fill:#607d8b;fill-opacity:1;stroke-width:0.362639" /><path
     id="p1GnGvwmMB"
     d="m 1779.936,651.02732 v -32.6375 h 85.2201 85.2201 v 32.6375 32.63749 h -85.2201 -85.2201 z"
     style="fill:#607d8b;fill-opacity:1;stroke-width:0.362639" /></g></svg>
